Simulation
nRows=20
nColumns=15
endheader
time  TH_x TH_y TH_z SC_y  SC_z  SC_x  AC_y  AC_z  AC_x  GH_y  GH_z  GH_yy  EL_x  PS_y
0.0  0.000000  0.000000  0.000000  -40.97484877243665  6.293857566463187  5.290427962726946  46.88178639500493  0.9380706972717848  1.1430882626851178  -29.411299187233006  1.2462785811684025  51.98642977609796  22.610060893237698  120.000000
0.05745  0.000000  0.000000  0.000000  -40.20613316405106  5.286633008796423  3.1951037754036857  46.392460766162586  1.9615160990503993  1.2820236213238343  -20.217994326978836  3.3328403345780995  42.47171760907466  22.035626921067635  120.000000
0.1149  0.000000  0.000000  0.000000  -39.47828082089892  4.186990924771501  1.244882472114083  45.9939164144317  2.8463217169419837  1.44757657813038  -16.25362327414589  5.342741615704503  38.14955932389612  21.640291173163888  120.000000
0.17235  0.000000  0.000000  0.000000  -38.84761643253926  3.1102326401779092  -0.5440706517306686  45.68872386111427  3.580348412583224  1.6389205504393018  -13.019871799492039  7.322095580312205  34.48723296244728  21.50214141155037  120.000000
0.2298  0.000000  0.000000  0.000000  -38.3644483556957  2.1214573813185083  -2.1607035106037444  45.46076093971174  4.183961272343488  1.8749673841805166  -10.251841271435417  9.368327933085656  31.182279072359368  21.625909510937834  120.000000
0.28725  0.000000  0.000000  0.000000  -38.04423833884885  1.2781411637226996  -3.593204922891481  45.30244164988107  4.710260819001378  2.165146372909342  -8.02175790225746  11.584693872144866  28.27082320443961  21.95121954852963  120.000000
0.3447  0.000000  0.000000  0.000000  -37.90341598025171  0.6326513780941017  -4.821280019774261  45.20155315875785  5.2105233428452  2.5077274818802424  -6.362686672987238  14.05261855251366  25.751914301548318  22.3794616199444  120.000000
0.40215  0.000000  0.000000  0.000000  -37.957103592011926  0.21797310895389152  -5.821235008526353  45.14793365226296  5.7182570120878955  2.8964753146989386  -5.213074702808714  16.82410391954629  23.539148595269648  22.80124939366068  120.000000
0.4596  0.000000  0.000000  0.000000  -38.21669069959018  0.05479728600529413  -6.5733258948683275  45.13990904165475  6.2367872144003424  3.322650242237742  -4.455357610188103  19.916719340270312  21.505994723618667  23.12494446299069  120.000000
0.51705  0.000000  0.000000  0.000000  -38.67784177585685  0.14773245916559902  -7.082716787470569  45.18060408441716  6.754240645066891  3.792785764837058  -3.9828158459912575  23.31212505300623  19.55818144174353  23.291198362575983  120.000000
0.5745  0.000000  0.000000  0.000000  -39.32689277877056  0.4812013335688095  -7.385497540898845  45.27808015582115  7.256055502630857  4.334413538879186  -3.6923105767158177  26.961097621812453  17.62423617228276  23.27968178432965  120.000000
0.63195  0.000000  0.000000  0.000000  -40.14324373317929  1.0218960073433023  -7.5154199724040565  45.455464625855264  7.718414663225795  4.9678762215743975  -3.4849703312320686  30.79083362874741  15.647959242098128  23.102679372418983  120.000000
0.6894  0.000000  0.000000  0.000000  -41.105044868253394  1.728986663367771  -7.492664674565732  45.740621513508316  8.122545361897057  5.709107055456802  -3.2759283318539354  34.710881790745496  13.581852964617255  22.789315028481138  120.000000
0.74685  0.000000  0.000000  0.000000  -42.1836018949218  2.5651156408057267  -7.320548124474468  46.16386472717333  8.469803419995104  6.558946544630752  -3.014858061059321  38.61921363017542  11.396413103437682  22.37524762508343  120.000000
0.8043  0.000000  0.000000  0.000000  -43.3356514668494  3.4913021752589515  -6.9839366330640145  46.743368264781104  8.786968137163857  7.503689614765528  -2.696164620043781  42.4036368641794  9.084376863244707  21.895803529502572  120.000000
0.86175  0.000000  0.000000  0.000000  -44.50054194913669  4.462520011660514  -6.451426752324658  47.476440991893675  9.12161551636869  8.514584183570465  -2.3555008347055058  45.95047221082883  6.66623542260095  21.384346825894912  120.000000
0.9192  0.000000  0.000000  0.000000  -45.609663280225135  5.441707718257244  -5.686713244605671  48.3402229799116  9.531446575636922  9.543707122278436  -2.050703925781479  49.16451125742724  4.188613201247428  20.870437442842682  120.000000
0.97665  0.000000  0.000000  0.000000  -46.60053610617052  6.394958805042528  -4.659493099951318  49.28863608529714  10.063667194711956  10.537735694472948  -1.842828528068618  51.98462372187315  1.7289908222414756  20.3755438837804  120.000000
1.0341  0.000000  0.000000  0.000000  -47.4324348872478  7.289247238475119  -3.363830492066534  50.26458412714648  10.735526252418788  11.446902132488413  -1.7744138827463  54.388638015516555  -0.6074173598102889  19.91207591982388  120.000000
1.09155  0.000000  0.000000  0.000000  -48.0899011980558  8.091790453662258  -1.826376779294857  51.20847330014205  11.529802999089464  12.233296405385481  -1.863702379118838  56.393919265007625  -2.696692807981262  19.482007690040547  120.000000
